<?xml version="1.0" encoding="utf-8"?><!DOCTYPE svg PUBLIC "-//W3C//DTD SVG 1.1//EN" "http://www.w3.org/Graphics/SVG/1.1/DTD/svg11.dtd"><svg viewBox="0 0 792 792" xmlns="http://www.w3.org/2000/svg" xmlns:xlink="http://www.w3.org/1999/xlink"><style>:root>svg{display:none}:root>svg:target{display:block}</style><svg viewBox="0 0 16 16" id="bootstrap" xmlns="http://www.w3.org/2000/svg"><path fill-rule="evenodd" d="M4.002 0a4 4 0 00-4 4v8a4 4 0 004 4h8a4 4 0 004-4V4a4 4 0 00-4-4h-8zm1.06 12h3.475c1.804 0 2.888-.908 2.888-2.396 0-1.102-.761-1.916-1.904-2.034v-.1c.832-.14 1.482-.93 1.482-1.816 0-1.3-.955-2.11-2.542-2.11H5.062V12zm1.313-4.875V4.658h1.78c.973 0 1.542.457 1.542 1.237 0 .802-.604 1.23-1.764 1.23H6.375zm0 3.762h1.898c1.184 0 1.81-.48 1.81-1.377 0-.885-.65-1.348-1.886-1.348H6.375v2.725z"/></svg><svg fill="none" stroke="currentColor" stroke-width="2" stroke-linecap="round" stroke-linejoin="round" viewBox="0 0 24 24" id="clock" xmlns="http://www.w3.org/2000/svg"><circle cx="12" cy="12" r="10"/><path d="M12 6v6l4 2"/></svg><svg fill-rule="evenodd" viewBox="0 0 50 50" id="css" xmlns="http://www.w3.org/2000/svg"><path d="M42 6l-3 34-14 4-14-4L8 6zM16.8 28h4l.098 2.5L25 31.898l4.102-1.398.296-4.5h-8.796l-.204-4h9.204l.296-4H16.102l-.301-4h18.3l-.5 8-.703 11.5L25 36.102 17.102 33.5z"/></svg><svg viewBox="0 0 307.053 307.053" id="downarrow" xmlns="http://www.w3.org/2000/svg"><path d="M302.445 80.796l-11.101-11.103c-6.123-6.131-16.074-6.131-22.209 0L153.67 183.707 37.907 67.959c-6.134-6.13-16.08-6.13-22.209 0L4.597 79.06c-6.129 6.133-6.129 16.067 0 22.201l137.83 137.829c6.129 6.136 16.067 6.136 22.203 0l137.815-136.096c6.144-6.13 6.144-16.068 0-22.198z"/></svg><svg fill="none" stroke="currentColor" stroke-width="2" stroke-linecap="round" stroke-linejoin="round" viewBox="0 0 24 24" id="download" xmlns="http://www.w3.org/2000/svg"><path d="M21 15v4a2 2 0 01-2 2H5a2 2 0 01-2-2v-4M7 10l5 5 5-5M12 15V3"/></svg><svg viewBox="0 0 30 30" id="figma" xmlns="http://www.w3.org/2000/svg"><path d="M10 29a4 4 0 010-8h2.857c.631 0 1.143.512 1.143 1.143V25a4 4 0 01-4 4zM20 9h-2.857A1.143 1.143 0 0116 7.857V2.143C16 1.512 16.512 1 17.143 1H20a4 4 0 010 8zM10 1h2.857C13.488 1 14 1.512 14 2.143v5.714C14 8.488 13.488 9 12.857 9H10a4 4 0 010-8zm0 10h2.857c.631 0 1.143.512 1.143 1.143v5.714c0 .631-.512 1.143-1.143 1.143H10a4 4 0 010-8zm10 0a4 4 0 100 8 4 4 0 100-8z"/></svg><svg viewBox="0 0 50 50" id="git" xmlns="http://www.w3.org/2000/svg"><path d="M46.793 22.09L27.91 3.207A4.093 4.093 0 0025 2c-1.055 0-2.11.402-2.91 1.207l-3.735 3.734 4.622 4.622a3.994 3.994 0 014.851.609 3.988 3.988 0 01.606 4.848l4.543 4.543a3.994 3.994 0 014.851 6.265 3.994 3.994 0 01-6.266-4.852l-4.542-4.542a3.855 3.855 0 01-1.02.421v12.286A3.99 3.99 0 0129 35c0 2.21-1.79 4-4 4s-4-1.79-4-4a3.99 3.99 0 013-3.86V18.856a3.955 3.955 0 01-1.828-1.027 3.988 3.988 0 01-.606-4.848l-4.625-4.625L3.207 22.09a4.112 4.112 0 000 5.82L22.09 46.793A4.093 4.093 0 0025 48c1.055 0 2.11-.402 2.91-1.207L46.793 27.91a4.112 4.112 0 000-5.82z"/></svg><svg viewBox="0 0 48 48" id="gmail" xmlns="http://www.w3.org/2000/svg"><path fill="#6eb37d" d="M45 16.2l-5 2.75-5 4.75V40h7a3 3 0 003-3V16.2z"/><path fill="#5c7aaf" d="M3 16.2l3.614 1.71L13 23.7V40H6a3 3 0 01-3-3V16.2z"/><path fill="#cc2729" d="M35 11.2l-11 8.25-11-8.25-1 5.8 1 6.7 11 8.25 11-8.25 1-6.7z"/><path fill="#b43b2c" d="M3 12.298V16.2l10 7.5V11.2L9.876 8.859A4.298 4.298 0 003 12.298z"/><path fill="#febf10" d="M45 12.298V16.2l-10 7.5V11.2l3.124-2.341A4.298 4.298 0 0145 12.298z"/></svg><svg viewBox="0 0 32 32" id="gulp" xmlns="http://www.w3.org/2000/svg"><path d="M22.154 1a.14.14 0 00-.093.033l-3.715 4.412-.758 2.606a48.434 48.434 0 00-1.592-.024c-3.86 0-6.996.41-6.996.916 0 1.21 13.99 1.21 13.99 0 0-.375-1.675-.691-4.09-.841l.6-2.145 3.475-4.18.005-.006c.078-.08-.074-.324-.322-.537-.186-.16-.381-.239-.504-.234zm-4.851 8.076l-.014.041c-.006.005-.006.012-.006.018 0 .075.303.136.672.136.37 0 .674-.061.674-.136l.012-.047c.097.035.15.075.15.121 0 .121-.375.22-.842.215-.454 0-.83-.092-.83-.213 0-.052.075-.1.184-.135zm5.61.344c-1.852.987-11.963.994-13.821.014l.822 7.232c.357-1.153 1.26-2.71 2.422-3.182.38-.156.768-.155 1.13.053.316.173.582.536.612.68.073.375-.12.523-.271.523-.182 0-.321-.264-.412-.42-.248-.42-.624-.439-1.024-.162-.418.288-.781.773-1.035 1.194a6.631 6.631 0 00-.727 1.625c-.09.323-.174.84-.035 1.146.061.127.151.207.297.207.303 0 .743-.38.955-.582.272-.259.623-.663.756-.922l.316-.892c.157-.392.598-.323.598 0 0 .588-.222.784-.603 2-.351 1.124-.461 1.488-.461 1.488-.042.16-.206.432-.381.432-.073 0-.126-.025-.156-.07-.061-.082-.055-.304-.05-.362.013-.184.381-1.28.442-1.453a7.36 7.36 0 01-.387.38c-.327.295-.852.68-1.3.68a.762.762 0 01-.465-.138l.459 4.588c.12.288 2.373.986 5.338.986 2.97 0 5.22-.703 5.336-.986l.66-5.452c-.345.3-.744.67-1.186.854-.327.133-1.053.218-1.053-.33 0-.3.552-.852.872-1.238.085-.098.283-.34.283-.467 0-.167-.362-.129-.707.142a3.373 3.373 0 00-.528.56c-.26.347-.398.645-.513.893-.375.818-.248.496-.551 1.268-.303.767-.254.68-.315.807a.565.565 0 01-.242.26.38.38 0 01-.369-.018c-.054-.035-.08-.11-.08-.213 0-.052.008-.104.02-.156.09-.352.472-1.043.908-1.977.097-.213.06-.15.047-.133-.375.346-.66.514-.871.606-.351.15-.787.15-.877-.237-.006-.023-.006-.047-.012-.07-.714.53-1.47.674-1.21-.467-.277.473-.763.86-1.357.86-.247 0-.429-.08-.519-.293-.139-.317.078-.86.277-1.373.103-.26.244-.57.432-.934.097-.196.253-.312.459-.26a.54.54 0 01.098.041c.157.104.096.258.017.414-.23.432-.43.75-.562 1.2-.054.19-.122.52.09.52a.728.728 0 00.417-.14c.278-.196.502-.489.672-.777a3.85 3.85 0 00.34-.709c.03-.098.068-.19.11-.277.067-.144.156-.293.314-.293.079 0 .144.029.193.086.103.127.08.257.026.396-.121.323-.284.612-.418.963-.08.202-.164.461-.164.674 0 .196.224.15.412.068.145-.063.29-.16.412-.257.073-.282.054-.22 1.598-3.932.079-.19.224-.272.369-.272a.34.34 0 01.193.065c.103.075.105.234.063.355-.042.11-.038.076-.274.606-.315.697-.52 1.2-.799 1.84-.115.265-.465 1.089-.525 1.285-.036.127-.08.334.06.334.328 0 1.169-.756 1.399-.98.012-.018.03-.024.055-.036.036-.11.071-.212.101-.316.085-.22.164-.475.322-.653.048-.058.103-.091.163-.091.169 0 .253.068.253.23 0 .063-.04.295-.066.358.085-.086.175-.172.272-.258.908-.801 1.554-.393 1.554.011 0 .426-.538 1.02-.834 1.348-.097.11-.296.311-.302.37 0 .074.053.105.132.105.121 0 .388-.203.485-.272.303-.225.713-.57 1.004-.812l.896-7.885zM10.93 24.03l.902 1.465.352 4.576c0 .513 1.712.928 3.818.928s3.818-.415 3.818-.928l.28-4.623.851-1.418c-2.397.963-7.527.997-10.021 0z"/></svg><svg viewBox="0 0 50 50" id="html" xmlns="http://www.w3.org/2000/svg"><path d="M45.273 2.324A.996.996 0 0044.535 2H5.465a.996.996 0 00-.996 1.09l3.52 39.426c.034.414.324.757.722.875l16.012 4.57c.086.027.18.039.273.039a.926.926 0 00.274-.04l16.023-4.57c.398-.117.684-.46.723-.874L45.53 3.09a.985.985 0 00-.258-.766zm-8.425 13.594H18.035l.45 5.09h17.91L35.05 36.05 24.992 39.09l-.097-.031-9.942-3.012-.543-6.129h4.871l.211 2.379 5.559 1.164 5.457-1.164.582-6.438H14.047l-1.324-14.804H37.28z"/></svg><svg viewBox="0 0 792 792" id="iphone" xmlns="http://www.w3.org/2000/svg"><path d="M557.75 792s71.889 0 71.889-71.997V71.997C629.639 0 557.75 0 557.75 0h-323.5s-71.889 0-71.889 71.997v648.006C162.361 792 234.25 792 234.25 792h323.5zM396 762.022c-19.841 0-35.944-16.104-35.944-35.944 0-19.842 16.103-35.944 35.944-35.944s35.945 16.103 35.945 35.944-16.103 35.944-35.945 35.944zM306.139 43.888c0-4.457 3.559-7.944 7.944-7.944h163.8c4.385 0 7.979 3.559 7.979 7.944v2.121c0 4.493-3.559 7.944-7.943 7.944H314.083c-4.349 0-7.944-3.559-7.944-7.944v-2.121zM198.306 89.861h395.389v575.111H198.306V89.861z"/></svg><svg viewBox="0 0 50 50" id="javascript" xmlns="http://www.w3.org/2000/svg"><path d="M43.336 4H6.668A2.669 2.669 0 004 6.668v36.664A2.669 2.669 0 006.668 46h36.664A2.668 2.668 0 0046 43.336V6.668A2.668 2.668 0 0043.336 4zM27 36.184C27 40.18 24.656 42 21.234 42c-3.093 0-5.324-2.074-6.234-4l3.145-1.902C18.75 37.172 19.672 38 21 38c1.27 0 2-.496 2-2.426V23h4zM35.676 42c-3.543 0-5.555-1.785-6.676-4l3-2c.816 1.336 1.707 2.613 3.59 2.613 1.582 0 2.41-.789 2.41-1.883 0-1.304-.86-1.77-2.598-2.53l-.953-.41c-2.754-1.173-4.586-2.642-4.586-5.75 0-2.86 2.184-5.04 5.59-5.04 2.426 0 4.168.844 5.426 3.055l-2.969 1.91c-.656-1.176-1.36-1.637-2.457-1.637-1.117 0-1.824.711-1.824 1.637 0 1.144.707 1.605 2.344 2.316l.953.41C40.172 32.078 42 33.496 42 36.684 42 40.117 39.3 42 35.676 42z"/></svg><svg viewBox="0 0 50 50" id="jquery" xmlns="http://www.w3.org/2000/svg"><path d="M29.867 3.008c-.105.015-.21.047-.312.094-.86.425-1.836 1.691-2.024 1.941A8.965 8.965 0 0026 9.988a9.875 9.875 0 00.77 3.89c1.218 2.927 3.75 5.349 6.761 6.481l.375.133c.016.008.164.055.188.059l.11.039c.155.05.316.101.472.133.793.16 1.566.25 2.293.273.125 0 .25.004.375.004 5.48 0 7.605-3.867 8.312-5.156.07-.125.121-.227.168-.29 0-.003 0-.003.004-.007a1 1 0 10-1.652-1.125h-.004c-1.461 2.152-3.961 2.805-7.426 1.945a7.132 7.132 0 01-.789-.254 9.557 9.557 0 01-.96-.402c-.606-.3-1.177-.66-1.692-1.059-3.047-2.363-4.239-7.28-2.457-10.12a1 1 0 00-.98-1.524zM21.007 5a.979.979 0 00-.644.227c-1.511 1.23-3.058 3.246-3.125 3.328a.263.263 0 01-.027.043c-2.734 3.98-2.941 9.644-.523 14.43.378.757.808 1.48 1.265 2.144l.137.195c.387.567.82 1.207 1.375 1.707.191.219.398.43.601.633l.098.102.082.082c.207.199.418.402.637.597h.004c.015.024.039.04.058.059.246.219.496.426.828.687l.09.067a16.646 16.646 0 00.871.652c.094.063.188.121.282.188l.093.062.11.07c.199.133.394.254.672.415.18.109.37.218.496.28.054.032.113.063.25.137l.304.16.102.047c.2.102.406.2.613.293l.317.141c.207.09.418.176.675.274l.118.042c.007.008.105.043.113.047.187.067.379.133.57.196l.438.144c.218.074.472.16.75.207a24.16 24.16 0 003.941.344c.149 0 .297-.004.442-.004 11.039-.242 13.91-9.621 13.937-9.715a1.004 1.004 0 00-.531-1.187 1 1 0 00-1.254.343c-2.797 4.086-8.086 5.813-13.473 4.391-.25-.062-.492-.133-.793-.23a2.676 2.676 0 01-.176-.063 9.093 9.093 0 01-.543-.187l-.277-.106c-.16-.062-.32-.125-.515-.21l-.13-.06c-.238-.1-.468-.214-.675-.316l-.57-.297c-.13-.062-.243-.132-.418-.238l-.098-.055-.098-.058a6.482 6.482 0 01-.422-.27l-.093-.058a1.38 1.38 0 01-.094-.067l-.34-.218c-.242-.172-.48-.352-.758-.57l-.11-.09c-2.577-2.06-4.484-4.81-5.378-7.758-.832-2.707-.215-6.25 1.652-9.477a.995.995 0 00-.218-1.262.985.985 0 00-.637-.238zM10.005 8c-.238 0-.48.086-.672.258-1.91 1.715-3.34 3.937-3.496 4.191-4.086 5.95-3.297 15.196-.492 20.848.054.117.113.23.172.344l.039.062c.05.113.11.23.129.254a.968.968 0 00.097.18c.047.097.094.183.18.332l.32.55.11.18c.062.102.129.207.195.313l.156.25c.047.074.094.14.125.18.156.242.313.484.485.714.007.012.015.02.023.028l.063.086c.14.203.285.398.414.558l.57.723c.008.008.07.082.074.09l.082.093c.172.211.356.422.54.625.027.032.054.059.081.09.176.192.356.383.543.582l.18.172c.148.156.297.309.453.453 0 .004.074.074.074.074l.156.145c.188.18.383.36.532.484.008.012.148.133.16.141.183.164.367.32.555.473l.957.757c.16.118.324.235.511.372.063.046.13.093.196.136a.672.672 0 00.078.059l.719.48c.261.172.523.332.843.524l.172.097c.2.118.402.235.594.336.113.063.226.118.324.168.137.075.285.157.512.266a18.4 18.4 0 00.945.445c0 .004.094.047.094.047a42.158 42.158 0 00.984.406c.242.094.496.188.703.262l.145.059a37.103 37.103 0 001.031.332l.2.062c.242.074.484.153.745.203 1.86.34 3.676.516 5.395.516h.004c14.324 0 18.887-11.527 18.933-11.645a1 1 0 00-1.734-.96c-3.676 4.84-10.61 6.636-18.547 4.812a10.624 10.624 0 01-.578-.16l-.375-.113a21.3 21.3 0 01-.754-.25c-.004 0-.117-.043-.117-.043-.219-.075-.437-.16-.629-.235l-.219-.086c-.242-.097-.484-.199-.718-.304l-.137-.059c-.211-.098-.414-.191-.617-.293a4.214 4.214 0 00-.192-.09c-.14-.07-.28-.144-.46-.242l-.817-.437a2.798 2.798 0 00-.25-.149c-.246-.152-.5-.305-.75-.465-.059-.035-.11-.074-.207-.14-.172-.11-.34-.223-.586-.395l-.098-.07c-.168-.117-.332-.242-.468-.344-.086-.062-.172-.133-.313-.238-.125-.098-.25-.192-.367-.285l-.219-.18c-.183-.149-.355-.305-.535-.457a.509.509 0 00-.07-.059c-.2-.183-.403-.367-.645-.597l-.707-.703a20.912 20.912 0 01-.539-.57c-.18-.2-.351-.4-.582-.673l-.422-.515a2.671 2.671 0 00-.172-.227c-.144-.195-.289-.387-.433-.59-3.89-5.36-4.907-16.547-1.875-20.644A1 1 0 0010.004 8z"/></svg><svg viewBox="0 0 512 512" fill="#373737" id="moon-dark" xmlns="http://www.w3.org/2000/svg"><path d="M268.279 496c-67.574 0-130.978-26.191-178.534-73.745S16 311.293 16 243.718A252.252 252.252 0 01154.183 18.676a24.44 24.44 0 0134.46 28.958 220.12 220.12 0 0054.8 220.923A218.746 218.746 0 00399.085 333.2a220.2 220.2 0 0065.277-9.846 24.439 24.439 0 0128.959 34.461A252.256 252.256 0 01268.279 496zM153.31 55.781A219.3 219.3 0 0048 243.718C48 365.181 146.816 464 268.279 464a219.3 219.3 0 00187.938-105.31 252.912 252.912 0 01-57.13 6.513 250.539 250.539 0 01-178.268-74.016 252.147 252.147 0 01-67.509-235.4z"/></svg><svg viewBox="0 0 497.25 497.25" id="notebook" xmlns="http://www.w3.org/2000/svg"><path d="M124.312 286.875h248.625V306H124.312zM124.312 401.625h248.625v19.125H124.312zM124.312 229.5h248.625v19.125H124.312zM124.312 344.25h248.625v19.125H124.312z"/><path d="M392.062 19.125h-19.125V0h-19.125v19.125h-57.375V0h-19.125v19.125h-57.375V0h-19.125v19.125h-57.375V0h-19.125v19.125h-19.125c-21.038 0-38.25 17.212-38.25 38.25V459c0 21.037 17.212 38.25 38.25 38.25h286.875c21.037 0 38.25-17.213 38.25-38.25V57.375c0-21.038-17.212-38.25-38.25-38.25zM411.188 459c0 11.475-7.65 19.125-19.125 19.125H105.188c-9.562 0-19.125-7.65-19.125-19.125V57.375c0-11.475 7.65-19.125 19.125-19.125h19.125v19.125h19.125V38.25h57.375v19.125h19.125V38.25h57.375v19.125h19.125V38.25h57.375v19.125h19.125V38.25h19.125c9.562 0 19.125 7.65 19.125 19.125V459z"/><path d="M124.312 172.125h248.625v19.125H124.312zM124.312 114.75h248.625v19.125H124.312z"/></svg><svg viewBox="0 0 50 50" id="photoshop" xmlns="http://www.w3.org/2000/svg"><path d="M6 4c-1.1 0-2 .9-2 2v38c0 1.1.9 2 2 2h38c1.1 0 2-.9 2-2V6c0-1.1-.9-2-2-2H6zm12.58 10c1.99 0 3.68.48 4.81 1.57 1.02 1.02 1.56 2.59 1.56 4.48 0 1.98-.48 3.32-1.31 4.41-1.15 1.6-3.17 2.4-5.09 2.4-.41 0-.73 0-1.09-.03V36H15V14.42c.99-.26 2.14-.42 3.58-.42zm.4 1.64c-.58 0-1.06.06-1.38.16v8.61c.29.03.58.06.99.06 2.4 0 4.03-1.6 4.03-4.64 0-2.21-.89-4.19-3.64-4.19zM31.71 20c1.27 0 2.19.39 2.86.8l-.67 1.87c-.63-.42-1.29-.71-2.15-.71-1.36 0-2.06.96-2.06 1.99s.4 1.64 1.99 2.67c1.86 1.16 3.32 2.6 3.32 4.75 0 3.12-2.19 4.63-4.85 4.63-1.16 0-2.45-.35-3.15-.9l.63-1.86c.57.35 1.56.8 2.59.8 1.43 0 2.36-.87 2.36-2.25 0-1.19-.43-2.02-2.06-3.05-2.09-1.32-3.22-2.67-3.22-4.43 0-2.54 1.92-4.31 4.41-4.31z"/></svg><svg viewBox="0 0 50 50" id="sass" xmlns="http://www.w3.org/2000/svg"><path d="M43.03 27.802a10.286 10.286 0 00-4.53 1.054c-.464-.926-.934-1.741-1.013-2.347-.092-.707-.199-1.129-.088-1.972.111-.843.599-2.036.591-2.125-.007-.089-.109-.518-1.117-.526-1.008-.007-1.87.194-1.972.46a9.797 9.797 0 00-.416 1.49c-.177.914-2.012 4.174-3.055 5.879-.341-.666-.631-1.252-.691-1.716-.092-.707-.199-1.129-.088-1.972.111-.843.599-2.036.591-2.125-.007-.089-.109-.518-1.117-.526-1.008-.007-1.87.194-1.972.46-.102.266-.21.888-.416 1.49-.207.602-2.647 6.039-3.286 7.448a43.557 43.557 0 01-.809 1.689l-.001-.002-.034.071c-.171.335-.273.521-.273.521l.003.007c-.136.246-.281.475-.353.475-.05 0-.151-.656.022-1.555.363-1.886 1.235-4.828 1.227-4.929-.004-.052.162-.564-.57-.833-.711-.26-.965.174-1.03.175-.063.001-.11.153-.11.153s.793-3.308-1.512-3.308c-1.44 0-3.436 1.576-4.42 3.004a1269.137 1269.137 0 00-4.974 2.727l-.108-.118c-2.794-2.981-7.958-5.089-7.739-9.096.08-1.457.586-5.293 9.924-9.946 7.649-3.812 13.773-2.763 14.831-.438 1.512 3.321-3.273 9.494-11.216 10.384-3.027.339-4.62-.834-5.017-1.271-.417-.46-.479-.481-.635-.394-.254.141-.093.547 0 .789.237.617 1.21 1.712 2.87 2.256 1.46.479 5.013.742 9.311-.92 4.813-1.862 8.571-7.041 7.468-11.37-1.123-4.403-8.423-5.85-15.332-3.396-4.112 1.461-8.563 3.754-11.764 6.747-3.806 3.56-4.412 6.658-4.162 7.952.889 4.6 7.228 7.595 9.767 9.815l-.35.193c-1.273.63-6.105 3.159-7.314 5.831-1.371 3.031.218 5.206 1.271 5.499 3.26.907 6.606-.725 8.404-3.407 1.798-2.681 1.578-6.172.753-7.766l-.032-.059.996-.587c.648-.38 1.284-.735 1.836-1.036-.309.846-.535 1.86-.653 3.325-.138 1.721.567 3.945 1.49 4.82.406.385.895.394 1.205.394 1.074 0 1.564-.893 2.103-1.95.662-1.296 1.249-2.804 1.249-2.804s-.737 4.075 1.271 4.075c.731 0 1.467-.949 1.795-1.432l.001.008.056-.095c.076-.116.119-.19.119-.19l.004-.021c.294-.51.946-1.674 1.924-3.594 1.263-2.48 2.475-5.586 2.475-5.586s.113.76.482 2.015c.217.739.679 1.556 1.043 2.339-.293.407-.473.64-.473.64l.005.012a23.86 23.86 0 01-.772.974c-.997 1.188-2.185 2.544-2.344 2.936-.187.461-.143.801.219 1.073.264.199.735.23 1.227.197.896-.06 1.527-.283 1.838-.418a6.156 6.156 0 001.58-.831c.978-.719 1.568-1.748 1.512-3.111-.031-.751-.271-1.495-.574-2.198.089-.128.178-.256.267-.387 1.542-2.255 2.738-4.732 2.738-4.732s.113.76.482 2.015c.187.636.556 1.329.887 2.009-1.45 1.178-2.349 2.547-2.662 3.445-.577 1.661-.125 2.414.723 2.585.384.078.927-.098 1.335-.271a6.172 6.172 0 001.688-.868c.978-.719 1.919-1.726 1.862-3.089-.026-.62-.194-1.236-.422-1.828 1.229-.512 2.821-.797 4.848-.56 4.349.508 5.202 3.223 5.039 4.359-.163 1.137-1.075 1.761-1.38 1.95-.305.189-.398.254-.372.394.037.204.178.196.438.152.358-.06 2.283-.924 2.366-3.022.104-2.658-2.448-5.583-6.968-5.559zm-33.518 11.3c-1.44 1.571-3.453 2.165-4.316 1.665-.932-.54-.563-2.854 1.205-4.521 1.077-1.016 2.468-1.952 3.391-2.529l.893-.537.097-.055-.001-.002.223-.134c.643 2.374.02 4.464-1.492 6.113zm10.493-7.134c-.502 1.223-1.552 4.352-2.191 4.184-.549-.144-.883-2.523-.11-4.863.389-1.178 1.22-2.586 1.709-3.133.786-.879 1.652-1.167 1.862-.81.269.454-.955 3.855-1.27 4.622zm8.67 4.137c-.213.111-.408.181-.498.127-.067-.04.088-.186.088-.186s1.084-1.167 1.512-1.698c.248-.309.537-.676.85-1.086.003.041.004.082.004.122-.004 1.398-1.354 2.341-1.956 2.721zm6.679-1.523c-.159-.113-.132-.478.389-1.614.205-.446.672-1.198 1.485-1.916.094.295.152.578.15.842-.011 1.759-1.266 2.416-2.024 2.688z"/></svg><svg viewBox="0 0 22.006 22.006" fill="#f4f4f4" id="sun-light" xmlns="http://www.w3.org/2000/svg"><path d="M4.63 6.045A1 1 0 106.044 4.63l-1.4-1.4A1.001 1.001 0 103.23 4.644l1.4 1.401zM20.997 10.003h-1.98a.999.999 0 100 2h1.98a1 1 0 100-2zM4 11.003a1 1 0 00-1.01-1H1.009c-.558 0-1.009.444-1.009 1 0 .553.443 1 1.009 1H2.99c.558 0 1.01-.443 1.01-1zM11.003 5a6 6 0 000 12c3.312 0 6-2.687 6-6s-2.688-6-6-6zm0 10a4 4 0 110-8 4 4 0 010 8zM4.63 15.962l-1.4 1.4a1 1 0 101.414 1.414l1.4-1.4a1.001 1.001 0 10-1.414-1.414zM17.376 6.045l1.4-1.401a1 1 0 10-1.414-1.414l-1.4 1.4a1.002 1.002 0 00-.007 1.421c.392.39 1.021.393 1.421-.006zM11.003 18.006a1 1 0 00-1 1.011v1.98a1.001 1.001 0 102 0v-1.98c0-.559-.443-1.011-1-1.011zM17.376 15.962a1 1 0 10-1.414 1.414l1.4 1.4a1.003 1.003 0 001.421.007.998.998 0 00-.007-1.421l-1.4-1.4zM11.003 4c.553 0 1-.443 1-1.01V1.01a1 1 0 10-2 0v1.98c0 .558.444 1.01 1 1.01z"/></svg><svg viewBox="0 0 50 50" id="telegram" xmlns="http://www.w3.org/2000/svg"><path d="M46.137 6.552c-.75-.636-1.928-.727-3.146-.238h-.002c-1.281.514-36.261 15.518-37.685 16.131-.259.09-2.521.934-2.288 2.814.208 1.695 2.026 2.397 2.248 2.478l8.893 3.045c.59 1.964 2.765 9.21 3.246 10.758.3.965.789 2.233 1.646 2.494.752.29 1.5.025 1.984-.355l5.437-5.043 8.777 6.845.209.125c.596.264 1.167.396 1.712.396.421 0 .825-.079 1.211-.237 1.315-.54 1.841-1.793 1.896-1.935l6.556-34.077c.4-1.82-.156-2.746-.694-3.201zM22 32l-3 8-3-10 23-17-17 19z"/></svg><svg viewBox="0 0 612 612" id="uparrow" xmlns="http://www.w3.org/2000/svg"><path d="M587.572 186.882C555.3 111.658 500.506 56.864 425.289 24.598 387.413 8.352 347.995.171 306.5.171c-41.488 0-81.213 8.259-119.118 24.427-75.852 32.351-130.967 86.939-163.29 162.284C7.902 224.629 0 264.176 0 305.664c0 41.495 7.902 81.37 24.092 119.124 32.323 75.346 87.438 130.27 163.29 162.619 37.905 16.162 77.63 24.422 119.118 24.422 41.495 0 80.913-8.174 118.789-24.422 75.217-32.271 130.011-87.402 162.283-162.619C603.819 386.913 612 347.159 612 305.664c0-41.488-8.181-80.906-24.428-118.782zm-34.128 223.515c-14.198 33.064-33.13 61.904-57.222 85.996-23.756 23.756-52.531 42.83-85.66 57.215-33.122 14.391-67.586 21.414-104.062 21.414-48.52 0-93.734-11.971-135.179-36.135-41.203-24.02-74.018-56.842-98.039-98.037-24.163-41.453-36.141-86.668-36.141-135.187 0-48.52 12.049-93.355 36.141-134.508 24.092-41.16 56.836-74.024 98.039-98.038 41.445-24.17 86.66-36.142 135.179-36.142s93.355 12.05 134.515 36.142c41.153 24.092 73.818 56.95 97.703 98.038 23.971 41.231 36.142 85.989 36.142 134.508-.001 36.479-7.174 71.549-21.416 104.734z"/><path d="M321.562 188.552c-3.848-3.855-8.366-5.375-13.385-5.689-.335-.021-.335 0-.335 0-4.683 0-8.652 2.056-12.385 5.689l-166.63 162.283c-7.31 7.117-7.631 18.652-.671 26.105 7.431 7.945 18.981 7.596 26.769 0l152.918-149.234L457.076 376.94c7.695 7.695 19.402 7.695 26.098 0 7.024-5.689 7.024-20.416 0-26.105L321.562 188.552z"/></svg><svg viewBox="0 0 24 24" id="vite" xmlns="http://www.w3.org/2000/svg"><path d="M8.286 10.578l.512-8.657a.306.306 0 01.247-.282L17.377.006a.306.306 0 01.353.385l-1.558 5.403a.306.306 0 00.352.385l2.388-.46a.306.306 0 01.332.438l-6.79 13.55-.123.19a.294.294 0 01-.252.14c-.177 0-.35-.152-.305-.369l1.095-5.301a.306.306 0 00-.388-.355l-1.433.435a.306.306 0 01-.389-.354l.69-3.375a.306.306 0 00-.37-.36l-2.32.536a.306.306 0 01-.374-.316zm14.976-7.926L17.284 3.74l-.544 1.887 2.077-.4a.8.8 0 01.84.369.8.8 0 01.034.783L12.9 19.93l-.013.025-.015.023-.122.19a.801.801 0 01-.672.37.826.826 0 01-.634-.302.8.8 0 01-.16-.67l1.029-4.981-1.12.34a.81.81 0 01-.86-.262.802.802 0 01-.165-.67l.63-3.08-2.027.468a.808.808 0 01-.768-.233.81.81 0 01-.217-.6l.389-6.57-7.44-1.33a.612.612 0 00-.64.906L11.58 23.691a.612.612 0 001.066-.004l11.26-20.135a.612.612 0 00-.644-.9z"/></svg><svg viewBox="0 0 512 512" id="vue" xmlns="http://www.w3.org/2000/svg"><path d="M512 34.512L256 477.488 0 34.512h41.601L256 405.502l214.399-370.99H512zM256 135.247L196.818 34.512h-89.766L256 292.248 404.948 34.512h-89.766L256 135.247z"/></svg></svg>