<?xml version="1.0" encoding="utf-8"?><svg viewBox="0 0 512 512" xmlns="http://www.w3.org/2000/svg" xmlns:xlink="http://www.w3.org/1999/xlink"><style>:root>svg{display:none}:root>svg:target{display:block}</style><svg viewBox="0 0 48 48" id="gmail" xmlns="http://www.w3.org/2000/svg"><path fill="#5c7aaf" d="M12.47 40.69c-1.07-.08-2.5-.09-3.57-.04-1.16.06-2.34.19-3.49-.03-1.15-.21-2.29-.83-2.79-1.9-.3-.63-.34-1.35-.37-2.06-.04-.73-.08-1.47-.05-2.21.04-1 .19-2 .26-3 .05-.8.05-1.6.04-2.41.18-4.49-.4-8.96-.49-13.43 2.26 2.16 5.29 4.07 7.88 5.79.72.48 1.4 1 2.07 1.54.09 1.13.2 2.23.29 3.39.11 1.37.11 2.75.12 4.13.01 3.25.1 10.23.1 10.23z"/><path fill="#b43b2c" d="M11.96 22.94c-.67-.54-1.35-1.06-2.07-1.54-2.59-1.72-5.62-3.63-7.88-5.79-.02-1-.01-2 .03-3-.22-4.38 5.08-6.03 8.03-3.23.57.47 1.1.91 1.59 1.32.05 1.28-.03 2.96.06 4.15.17 2.18.03 4.46.14 6.65.03.49.06.97.1 1.44z"/><path fill="#cc2729" d="M35.5 21.63c-.04.77-.07 1.53-.09 2.28C31.47 26.45 27.99 29.5 24 32c-3.16-2.36-6.45-4.45-9.39-6.86-.89-.73-1.76-1.48-2.65-2.2-.04-.47-.07-.95-.1-1.44-.11-2.19.03-4.47-.14-6.65-.09-1.19-.01-2.87-.06-4.15 2.39 2 4.09 3.44 6.32 5.27 1.88 1.34 4.04 2.41 6.02 3.5 4.32-2.27 8.34-5.12 12.17-8.11.35 3.19-.49 7.13-.67 10.27z"/><path fill="#febf10" d="M46.05 15.31c-3.28 3.43-6.58 6.03-9.99 8.17-.22.14-.43.28-.65.43.02-.75.05-1.51.09-2.28.18-3.14 1.02-7.08.67-10.27.39-.3.77-.6 1.15-.9 1.05-.83 2.11-1.69 3.38-2.15 1.26-.46 2.8-.46 3.86.35.71.54 1.12 1.37 1.3 2.22.13 1.41.18 2.89.19 4.43z"/><path fill="#6eb37d" d="M45.87 39.21c-.18.57-.63 1.04-1.16 1.32s-1.12.4-1.72.45c-1.49.11-2.97-.23-4.46-.28-.89-.03-2.13.03-3.03.1 0 0-.01-2.91 0-4.03.03-4.41-.21-8.54-.09-12.86.22-.15.43-.29.65-.43 3.41-2.14 6.71-4.74 9.99-8.17.02 4.01-.26 8.35-.27 12.45 0 3.59.74 7.9.09 11.45z"/><path d="M35.62 11.658c.313 2.13.032 4.295-.24 6.414a58.892 58.892 0 00-.487 6.473c-.077 4.223.12 8.447.106 12.67-.004 1.196-.001 2.392.002 3.588.001.255.229.52.5.5 1.047-.078 2.103-.146 3.152-.098 1.215.056 2.417.288 3.634.295 1.046.006 2.167-.133 3.033-.767.819-.6 1.054-1.372 1.173-2.339.277-2.25.107-4.532-.04-6.785a76.354 76.354 0 01-.127-6.867c.059-2.379.161-4.756.203-7.136.02-1.168.026-2.337 0-3.506-.024-1.083-.013-2.213-.179-3.285-.299-1.932-1.915-3.269-3.837-3.312-2.098-.047-3.812 1.232-5.379 2.469-4.235 3.344-8.606 6.536-13.384 9.069h.505c-2.183-1.198-4.519-2.275-6.452-3.867-1.588-1.308-3.165-2.629-4.744-3.948-.916-.765-1.84-1.521-2.745-2.297-.602-.516-1.264-.921-2.022-1.165a5.572 5.572 0 00-4.203.336 4.665 4.665 0 00-2.484 3.399c-.172 1.078-.11 2.23-.105 3.319.007 1.349.066 2.696.142 4.043.154 2.736.38 5.471.393 8.213.006 1.336.004 2.684-.059 4.018-.061 1.286-.282 2.559-.286 3.848-.004 1.264-.066 2.76.456 3.939.448 1.011 1.39 1.685 2.413 2.038 1.32.456 2.745.317 4.112.244a31.596 31.596 0 013.794.024c.268.018.503-.243.5-.5-.03-2.524-.057-5.048-.078-7.572-.016-1.937.016-3.879-.078-5.814-.126-2.609-.48-5.194-.495-7.811-.008-1.429.019-2.86-.072-4.286-.091-1.424-.008-2.85-.108-4.272-.045-.638-1.045-.643-1 0 .086 1.225-.006 2.452.066 3.677.077 1.31.111 2.613.112 3.925.001 2.615.237 5.19.436 7.795.285 3.737.142 7.537.183 11.284l.034 3.074.5-.5a32.651 32.651 0 00-3.001-.056c-1.081.028-2.163.164-3.245.093-1.014-.067-2.1-.38-2.791-1.171-.737-.842-.676-2.075-.717-3.126-.047-1.196.046-2.362.164-3.55.119-1.195.106-2.382.136-3.58.061-2.417-.054-4.827-.204-7.24-.15-2.407-.318-4.815-.307-7.227.007-1.591-.158-3.336 1.028-4.578.885-.928 2.192-1.333 3.453-1.235 1.7.132 2.836 1.305 4.079 2.341 2.984 2.487 5.861 5.233 9.246 7.166.977.558 1.973 1.082 2.961 1.619.42.228.637.411 1.089.21.52-.231 1.018-.55 1.513-.832a73.183 73.183 0 005.824-3.716c1.823-1.279 3.6-2.624 5.353-3.998 1.608-1.261 3.369-2.911 5.564-2.801 1.073.054 1.972.599 2.452 1.57.454.919.398 2.037.437 3.039.087 2.232.042 4.467-.023 6.699-.067 2.304-.161 4.607-.186 6.912-.024 2.154.139 4.291.261 6.44.062 1.104.106 2.211.078 3.317-.024.941.087 2.398-.562 3.146-.75.865-2.075.906-3.131.864-1.168-.046-2.323-.26-3.492-.294-.981-.029-1.965.033-2.943.106l.5.5c-.008-2.999.012-5.997-.047-8.996-.087-4.433-.199-8.864.366-13.272.305-2.377.616-4.753.264-7.143-.093-.634-1.057-.365-.964.266z"/><path d="M1.834 16.064c3.218 3.139 7.297 5.148 10.731 8.019 1.74 1.455 3.501 2.862 5.345 4.184 1.942 1.392 3.918 2.736 5.834 4.165.136.101.367.087.505 0 4.105-2.589 7.772-5.799 11.868-8.4 3.751-2.382 7.201-5.027 10.253-8.274.441-.469-.265-1.177-.707-.707-1.56 1.659-3.219 3.221-5.007 4.632-1.67 1.318-3.451 2.464-5.24 3.611-4.019 2.576-7.632 5.728-11.672 8.275h.505c-1.853-1.382-3.761-2.684-5.642-4.028-1.905-1.361-3.715-2.817-5.513-4.314-3.38-2.813-7.392-4.786-10.553-7.87-.461-.45-1.169.257-.707.707z"/></svg><svg viewBox="0 0 512 512" id="moon-dark" xmlns="http://www.w3.org/2000/svg"><path d="M268.279 496c-67.574 0-130.978-26.191-178.534-73.745S16 311.293 16 243.718A252.252 252.252 0 01154.183 18.676a24.44 24.44 0 0134.46 28.958 220.12 220.12 0 0054.8 220.923A218.746 218.746 0 00399.085 333.2a220.2 220.2 0 0065.277-9.846 24.439 24.439 0 0128.959 34.461A252.256 252.256 0 01268.279 496zM153.31 55.781A219.3 219.3 0 0048 243.718C48 365.181 146.816 464 268.279 464a219.3 219.3 0 00187.938-105.31 252.912 252.912 0 01-57.13 6.513 250.539 250.539 0 01-178.268-74.016 252.147 252.147 0 01-67.509-235.4z"/></svg><svg viewBox="0 0 22.006 22.006" id="sun-light" xmlns="http://www.w3.org/2000/svg"><path d="M4.63 6.045A1 1 0 106.044 4.63l-1.4-1.4A1.001 1.001 0 103.23 4.644l1.4 1.401zM20.997 10.003h-1.98a.999.999 0 100 2h1.98a1 1 0 100-2zM4 11.003a1 1 0 00-1.01-1H1.009c-.558 0-1.009.444-1.009 1 0 .553.443 1 1.009 1H2.99c.558 0 1.01-.443 1.01-1zM11.003 5a6 6 0 000 12c3.312 0 6-2.687 6-6s-2.688-6-6-6zm0 10a4 4 0 110-8 4 4 0 010 8zM4.63 15.962l-1.4 1.4a1 1 0 101.414 1.414l1.4-1.4a1.001 1.001 0 10-1.414-1.414zM17.376 6.045l1.4-1.401a1 1 0 10-1.414-1.414l-1.4 1.4a1.002 1.002 0 00-.007 1.421c.392.39 1.021.393 1.421-.006zM11.003 18.006a1 1 0 00-1 1.011v1.98a1.001 1.001 0 102 0v-1.98c0-.559-.443-1.011-1-1.011zM17.376 15.962a1 1 0 10-1.414 1.414l1.4 1.4a1.003 1.003 0 001.421.007.998.998 0 00-.007-1.421l-1.4-1.4zM11.003 4c.553 0 1-.443 1-1.01V1.01a1 1 0 10-2 0v1.98c0 .558.444 1.01 1 1.01z"/></svg><svg viewBox="0 0 50 50" id="telegram" xmlns="http://www.w3.org/2000/svg"><path d="M46.137 6.552c-.75-.636-1.928-.727-3.146-.238h-.002c-1.281.514-36.261 15.518-37.685 16.131-.259.09-2.521.934-2.288 2.814.208 1.695 2.026 2.397 2.248 2.478l8.893 3.045c.59 1.964 2.765 9.21 3.246 10.758.3.965.789 2.233 1.646 2.494.752.29 1.5.025 1.984-.355l5.437-5.043 8.777 6.845.209.125c.596.264 1.167.396 1.712.396.421 0 .825-.079 1.211-.237 1.315-.54 1.841-1.793 1.896-1.935l6.556-34.077c.4-1.82-.156-2.746-.694-3.201zM22 32l-3 8-3-10 23-17-17 19z"/></svg></svg>